<svg xmlns="http://www.w3.org/2000/svg" viewBox="0 0 1300 2200" width="1000">
    <rect x="100" y="100" width="100" height="100" style="fill: none; stroke: black; stroke-width: 4;" transform="translate(-50.5 -51.5), rotate(-1.5 150 150)"></rect><rect x="100" y="200" width="100" height="100" style="fill: none; stroke: black; stroke-width: 4;" transform="translate(-53 -49), rotate(-3 150 250)"></rect><rect x="100" y="300" width="100" height="100" style="fill: none; stroke: black; stroke-width: 4;" transform="translate(-52.5 -51.5), rotate(0.5 150 350)"></rect><rect x="100" y="400" width="100" height="100" style="fill: none; stroke: black; stroke-width: 4;" transform="translate(-47 -54), rotate(-1 150 450)"></rect><rect x="100" y="500" width="100" height="100" style="fill: none; stroke: black; stroke-width: 4;" transform="translate(-50.5 -49.5), rotate(2.5 150 550)"></rect><rect x="100" y="600" width="100" height="100" style="fill: none; stroke: black; stroke-width: 4;" transform="translate(-45 -55), rotate(5 150 650)"></rect><rect x="100" y="700" width="100" height="100" style="fill: none; stroke: black; stroke-width: 4;" transform="translate(-40.5 -44.5), rotate(-6.5 150 750)"></rect><rect x="100" y="800" width="100" height="100" style="fill: none; stroke: black; stroke-width: 4;" transform="translate(-55 -54), rotate(10 150 850)"></rect><rect x="100" y="900" width="100" height="100" style="fill: none; stroke: black; stroke-width: 4;" transform="translate(-62.5 -44.5), rotate(7.5 150 950)"></rect><rect x="100" y="1000" width="100" height="100" style="fill: none; stroke: black; stroke-width: 4;" transform="translate(-63 -60), rotate(-5 150 1050)"></rect><rect x="100" y="1100" width="100" height="100" style="fill: none; stroke: black; stroke-width: 4;" transform="translate(-42.5 -60.5), rotate(-5.5 150 1150)"></rect><rect x="100" y="1200" width="100" height="100" style="fill: none; stroke: black; stroke-width: 4;" transform="translate(-51 -39), rotate(-5 150 1250)"></rect><rect x="100" y="1300" width="100" height="100" style="fill: none; stroke: black; stroke-width: 4;" transform="translate(-53.5 -41.5), rotate(-18.5 150 1350)"></rect><rect x="100" y="1400" width="100" height="100" style="fill: none; stroke: black; stroke-width: 4;" transform="translate(-34 -53), rotate(13 150 1450)"></rect><rect x="100" y="1500" width="100" height="100" style="fill: none; stroke: black; stroke-width: 4;" transform="translate(-38.5 -43.5), rotate(3.5 150 1550)"></rect><rect x="100" y="1600" width="100" height="100" style="fill: none; stroke: black; stroke-width: 4;" transform="translate(-67 -44), rotate(19 150 1650)"></rect><rect x="100" y="1700" width="100" height="100" style="fill: none; stroke: black; stroke-width: 4;" transform="translate(-34.5 -67.5), rotate(-14.5 150 1750)"></rect><rect x="100" y="1800" width="100" height="100" style="fill: none; stroke: black; stroke-width: 4;" transform="translate(-77 -55), rotate(11 150 1850)"></rect><rect x="100" y="1900" width="100" height="100" style="fill: none; stroke: black; stroke-width: 4;" transform="translate(-60.5 -62.5), rotate(8.5 150 1950)"></rect><rect x="100" y="2000" width="100" height="100" style="fill: none; stroke: black; stroke-width: 4;" transform="translate(-44 -25), rotate(-6 150 2050)"></rect><rect x="100" y="2100" width="100" height="100" style="fill: none; stroke: black; stroke-width: 4;" transform="translate(-68.5 -20.5), rotate(16.5 150 2150)"></rect><rect x="200" y="100" width="100" height="100" style="fill: none; stroke: black; stroke-width: 4;" transform="translate(-50.5 -51.5), rotate(0.5 250 150)"></rect><rect x="200" y="200" width="100" height="100" style="fill: none; stroke: black; stroke-width: 4;" transform="translate(-49 -48), rotate(-2 250 250)"></rect><rect x="200" y="300" width="100" height="100" style="fill: none; stroke: black; stroke-width: 4;" transform="translate(-50.5 -54.5), rotate(-4.5 250 350)"></rect><rect x="200" y="400" width="100" height="100" style="fill: none; stroke: black; stroke-width: 4;" transform="translate(-47 -47), rotate(-2 250 450)"></rect><rect x="200" y="500" width="100" height="100" style="fill: none; stroke: black; stroke-width: 4;" transform="translate(-56.5 -47.5), rotate(-7.5 250 550)"></rect><rect x="200" y="600" width="100" height="100" style="fill: none; stroke: black; stroke-width: 4;" transform="translate(-54 -51), rotate(3 250 650)"></rect><rect x="200" y="700" width="100" height="100" style="fill: none; stroke: black; stroke-width: 4;" transform="translate(-40.5 -45.5), rotate(-7.5 250 750)"></rect><rect x="200" y="800" width="100" height="100" style="fill: none; stroke: black; stroke-width: 4;" transform="translate(-55 -55), rotate(-6 250 850)"></rect><rect x="200" y="900" width="100" height="100" style="fill: none; stroke: black; stroke-width: 4;" transform="translate(-43.5 -57.5), rotate(3.5 250 950)"></rect><rect x="200" y="1000" width="100" height="100" style="fill: none; stroke: black; stroke-width: 4;" transform="translate(-43 -61), rotate(8 250 1050)"></rect><rect x="200" y="1100" width="100" height="100" style="fill: none; stroke: black; stroke-width: 4;" transform="translate(-64.5 -52.5), rotate(6.5 250 1150)"></rect><rect x="200" y="1200" width="100" height="100" style="fill: none; stroke: black; stroke-width: 4;" transform="translate(-58 -38), rotate(-1 250 1250)"></rect><rect x="200" y="1300" width="100" height="100" style="fill: none; stroke: black; stroke-width: 4;" transform="translate(-31.5 -58.5), rotate(-9.5 250 1350)"></rect><rect x="200" y="1400" width="100" height="100" style="fill: none; stroke: black; stroke-width: 4;" transform="translate(-30 -40), rotate(1 250 1450)"></rect><rect x="200" y="1500" width="100" height="100" style="fill: none; stroke: black; stroke-width: 4;" transform="translate(-60.5 -57.5), rotate(-11.5 250 1550)"></rect><rect x="200" y="1600" width="100" height="100" style="fill: none; stroke: black; stroke-width: 4;" transform="translate(-32 -35), rotate(9 250 1650)"></rect><rect x="200" y="1700" width="100" height="100" style="fill: none; stroke: black; stroke-width: 4;" transform="translate(-55.5 -54.5), rotate(-25.5 250 1750)"></rect><rect x="200" y="1800" width="100" height="100" style="fill: none; stroke: black; stroke-width: 4;" transform="translate(-58 -67), rotate(-8 250 1850)"></rect><rect x="200" y="1900" width="100" height="100" style="fill: none; stroke: black; stroke-width: 4;" transform="translate(-31.5 -49.5), rotate(-14.5 250 1950)"></rect><rect x="200" y="2000" width="100" height="100" style="fill: none; stroke: black; stroke-width: 4;" transform="translate(-37 -80), rotate(-4 250 2050)"></rect><rect x="200" y="2100" width="100" height="100" style="fill: none; stroke: black; stroke-width: 4;" transform="translate(-80.5 -42.5), rotate(6.5 250 2150)"></rect><rect x="300" y="100" width="100" height="100" style="fill: none; stroke: black; stroke-width: 4;" transform="translate(-49.5 -51.5), rotate(0.5 350 150)"></rect><rect x="300" y="200" width="100" height="100" style="fill: none; stroke: black; stroke-width: 4;" transform="translate(-48 -53), rotate(-2 350 250)"></rect><rect x="300" y="300" width="100" height="100" style="fill: none; stroke: black; stroke-width: 4;" transform="translate(-53.5 -54.5), rotate(1.5 350 350)"></rect><rect x="300" y="400" width="100" height="100" style="fill: none; stroke: black; stroke-width: 4;" transform="translate(-54 -51), rotate(3 350 450)"></rect><rect x="300" y="500" width="100" height="100" style="fill: none; stroke: black; stroke-width: 4;" transform="translate(-49.5 -51.5), rotate(-6.5 350 550)"></rect><rect x="300" y="600" width="100" height="100" style="fill: none; stroke: black; stroke-width: 4;" transform="translate(-52 -59), rotate(0 350 650)"></rect><rect x="300" y="700" width="100" height="100" style="fill: none; stroke: black; stroke-width: 4;" transform="translate(-48.5 -42.5), rotate(7.5 350 750)"></rect><rect x="300" y="800" width="100" height="100" style="fill: none; stroke: black; stroke-width: 4;" transform="translate(-59 -48), rotate(-2 350 850)"></rect><rect x="300" y="900" width="100" height="100" style="fill: none; stroke: black; stroke-width: 4;" transform="translate(-52.5 -43.5), rotate(-13.5 350 950)"></rect><rect x="300" y="1000" width="100" height="100" style="fill: none; stroke: black; stroke-width: 4;" transform="translate(-43 -56), rotate(-6 350 1050)"></rect><rect x="300" y="1100" width="100" height="100" style="fill: none; stroke: black; stroke-width: 4;" transform="translate(-40.5 -66.5), rotate(0.5 350 1150)"></rect><rect x="300" y="1200" width="100" height="100" style="fill: none; stroke: black; stroke-width: 4;" transform="translate(-55 -49), rotate(2 350 1250)"></rect><rect x="300" y="1300" width="100" height="100" style="fill: none; stroke: black; stroke-width: 4;" transform="translate(-64.5 -36.5), rotate(-0.5 350 1350)"></rect><rect x="300" y="1400" width="100" height="100" style="fill: none; stroke: black; stroke-width: 4;" transform="translate(-53 -38), rotate(-8 350 1450)"></rect><rect x="300" y="1500" width="100" height="100" style="fill: none; stroke: black; stroke-width: 4;" transform="translate(-62.5 -72.5), rotate(-15.5 350 1550)"></rect><rect x="300" y="1600" width="100" height="100" style="fill: none; stroke: black; stroke-width: 4;" transform="translate(-40 -61), rotate(2 350 1650)"></rect><rect x="300" y="1700" width="100" height="100" style="fill: none; stroke: black; stroke-width: 4;" transform="translate(-32.5 -69.5), rotate(5.5 350 1750)"></rect><rect x="300" y="1800" width="100" height="100" style="fill: none; stroke: black; stroke-width: 4;" transform="translate(-76 -37), rotate(3 350 1850)"></rect><rect x="300" y="1900" width="100" height="100" style="fill: none; stroke: black; stroke-width: 4;" transform="translate(-48.5 -37.5), rotate(-10.5 350 1950)"></rect><rect x="300" y="2000" width="100" height="100" style="fill: none; stroke: black; stroke-width: 4;" transform="translate(-71 -43), rotate(24 350 2050)"></rect><rect x="300" y="2100" width="100" height="100" style="fill: none; stroke: black; stroke-width: 4;" transform="translate(-41.5 -74.5), rotate(-13.5 350 2150)"></rect><rect x="400" y="100" width="100" height="100" style="fill: none; stroke: black; stroke-width: 4;" transform="translate(-49.5 -51.5), rotate(-1.5 450 150)"></rect><rect x="400" y="200" width="100" height="100" style="fill: none; stroke: black; stroke-width: 4;" transform="translate(-48 -49), rotate(-3 450 250)"></rect><rect x="400" y="300" width="100" height="100" style="fill: none; stroke: black; stroke-width: 4;" transform="translate(-51.5 -48.5), rotate(-4.5 450 350)"></rect><rect x="400" y="400" width="100" height="100" style="fill: none; stroke: black; stroke-width: 4;" transform="translate(-48 -51), rotate(-2 450 450)"></rect><rect x="400" y="500" width="100" height="100" style="fill: none; stroke: black; stroke-width: 4;" transform="translate(-57.5 -55.5), rotate(5.5 450 550)"></rect><rect x="400" y="600" width="100" height="100" style="fill: none; stroke: black; stroke-width: 4;" transform="translate(-54 -47), rotate(-1 450 650)"></rect><rect x="400" y="700" width="100" height="100" style="fill: none; stroke: black; stroke-width: 4;" transform="translate(-48.5 -45.5), rotate(-7.5 450 750)"></rect><rect x="400" y="800" width="100" height="100" style="fill: none; stroke: black; stroke-width: 4;" transform="translate(-44 -61), rotate(-10 450 850)"></rect><rect x="400" y="900" width="100" height="100" style="fill: none; stroke: black; stroke-width: 4;" transform="translate(-50.5 -49.5), rotate(-3.5 450 950)"></rect><rect x="400" y="1000" width="100" height="100" style="fill: none; stroke: black; stroke-width: 4;" transform="translate(-61 -37), rotate(-5 450 1050)"></rect><rect x="400" y="1100" width="100" height="100" style="fill: none; stroke: black; stroke-width: 4;" transform="translate(-42.5 -54.5), rotate(-10.5 450 1150)"></rect><rect x="400" y="1200" width="100" height="100" style="fill: none; stroke: black; stroke-width: 4;" transform="translate(-65 -44), rotate(15 450 1250)"></rect><rect x="400" y="1300" width="100" height="100" style="fill: none; stroke: black; stroke-width: 4;" transform="translate(-46.5 -39.5), rotate(4.5 450 1350)"></rect><rect x="400" y="1400" width="100" height="100" style="fill: none; stroke: black; stroke-width: 4;" transform="translate(-58 -64), rotate(-7 450 1450)"></rect><rect x="400" y="1500" width="100" height="100" style="fill: none; stroke: black; stroke-width: 4;" transform="translate(-43.5 -68.5), rotate(5.5 450 1550)"></rect><rect x="400" y="1600" width="100" height="100" style="fill: none; stroke: black; stroke-width: 4;" transform="translate(-54 -29), rotate(-24 450 1650)"></rect><rect x="400" y="1700" width="100" height="100" style="fill: none; stroke: black; stroke-width: 4;" transform="translate(-31.5 -68.5), rotate(2.5 450 1750)"></rect><rect x="400" y="1800" width="100" height="100" style="fill: none; stroke: black; stroke-width: 4;" transform="translate(-25 -47), rotate(-3 450 1850)"></rect><rect x="400" y="1900" width="100" height="100" style="fill: none; stroke: black; stroke-width: 4;" transform="translate(-25.5 -43.5), rotate(8.5 450 1950)"></rect><rect x="400" y="2000" width="100" height="100" style="fill: none; stroke: black; stroke-width: 4;" transform="translate(-49 -34), rotate(3 450 2050)"></rect><rect x="400" y="2100" width="100" height="100" style="fill: none; stroke: black; stroke-width: 4;" transform="translate(-60.5 -70.5), rotate(12.5 450 2150)"></rect><rect x="500" y="100" width="100" height="100" style="fill: none; stroke: black; stroke-width: 4;" transform="translate(-49.5 -50.5), rotate(-1.5 550 150)"></rect><rect x="500" y="200" width="100" height="100" style="fill: none; stroke: black; stroke-width: 4;" transform="translate(-53 -48), rotate(0 550 250)"></rect><rect x="500" y="300" width="100" height="100" style="fill: none; stroke: black; stroke-width: 4;" transform="translate(-51.5 -46.5), rotate(-0.5 550 350)"></rect><rect x="500" y="400" width="100" height="100" style="fill: none; stroke: black; stroke-width: 4;" transform="translate(-53 -51), rotate(1 550 450)"></rect><rect x="500" y="500" width="100" height="100" style="fill: none; stroke: black; stroke-width: 4;" transform="translate(-55.5 -57.5), rotate(1.5 550 550)"></rect><rect x="500" y="600" width="100" height="100" style="fill: none; stroke: black; stroke-width: 4;" transform="translate(-50 -55), rotate(-6 550 650)"></rect><rect x="500" y="700" width="100" height="100" style="fill: none; stroke: black; stroke-width: 4;" transform="translate(-54.5 -44.5), rotate(-5.5 550 750)"></rect><rect x="500" y="800" width="100" height="100" style="fill: none; stroke: black; stroke-width: 4;" transform="translate(-56 -55), rotate(10 550 850)"></rect><rect x="500" y="900" width="100" height="100" style="fill: none; stroke: black; stroke-width: 4;" transform="translate(-49.5 -58.5), rotate(-7.5 550 950)"></rect><rect x="500" y="1000" width="100" height="100" style="fill: none; stroke: black; stroke-width: 4;" transform="translate(-46 -51), rotate(14 550 1050)"></rect><rect x="500" y="1100" width="100" height="100" style="fill: none; stroke: black; stroke-width: 4;" transform="translate(-59.5 -62.5), rotate(-9.5 550 1150)"></rect><rect x="500" y="1200" width="100" height="100" style="fill: none; stroke: black; stroke-width: 4;" transform="translate(-43 -53), rotate(6 550 1250)"></rect><rect x="500" y="1300" width="100" height="100" style="fill: none; stroke: black; stroke-width: 4;" transform="translate(-56.5 -60.5), rotate(4.5 550 1350)"></rect><rect x="500" y="1400" width="100" height="100" style="fill: none; stroke: black; stroke-width: 4;" transform="translate(-41 -47), rotate(-16 550 1450)"></rect><rect x="500" y="1500" width="100" height="100" style="fill: none; stroke: black; stroke-width: 4;" transform="translate(-45.5 -37.5), rotate(-9.5 550 1550)"></rect><rect x="500" y="1600" width="100" height="100" style="fill: none; stroke: black; stroke-width: 4;" transform="translate(-51 -38), rotate(4 550 1650)"></rect><rect x="500" y="1700" width="100" height="100" style="fill: none; stroke: black; stroke-width: 4;" transform="translate(-43.5 -61.5), rotate(6.5 550 1750)"></rect><rect x="500" y="1800" width="100" height="100" style="fill: none; stroke: black; stroke-width: 4;" transform="translate(-41 -49), rotate(-9 550 1850)"></rect><rect x="500" y="1900" width="100" height="100" style="fill: none; stroke: black; stroke-width: 4;" transform="translate(-68.5 -44.5), rotate(-25.5 550 1950)"></rect><rect x="500" y="2000" width="100" height="100" style="fill: none; stroke: black; stroke-width: 4;" transform="translate(-53 -31), rotate(27 550 2050)"></rect><rect x="500" y="2100" width="100" height="100" style="fill: none; stroke: black; stroke-width: 4;" transform="translate(-44.5 -67.5), rotate(11.5 550 2150)"></rect><rect x="600" y="100" width="100" height="100" style="fill: none; stroke: black; stroke-width: 4;" transform="translate(-51.5 -49.5), rotate(0.5 650 150)"></rect><rect x="600" y="200" width="100" height="100" style="fill: none; stroke: black; stroke-width: 4;" transform="translate(-50 -49), rotate(2 650 250)"></rect><rect x="600" y="300" width="100" height="100" style="fill: none; stroke: black; stroke-width: 4;" transform="translate(-48.5 -52.5), rotate(-4.5 650 350)"></rect><rect x="600" y="400" width="100" height="100" style="fill: none; stroke: black; stroke-width: 4;" transform="translate(-56 -49), rotate(2 650 450)"></rect><rect x="600" y="500" width="100" height="100" style="fill: none; stroke: black; stroke-width: 4;" transform="translate(-50.5 -55.5), rotate(4.5 650 550)"></rect><rect x="600" y="600" width="100" height="100" style="fill: none; stroke: black; stroke-width: 4;" transform="translate(-58 -48), rotate(-3 650 650)"></rect><rect x="600" y="700" width="100" height="100" style="fill: none; stroke: black; stroke-width: 4;" transform="translate(-46.5 -53.5), rotate(-2.5 650 750)"></rect><rect x="600" y="800" width="100" height="100" style="fill: none; stroke: black; stroke-width: 4;" transform="translate(-44 -43), rotate(0 650 850)"></rect><rect x="600" y="900" width="100" height="100" style="fill: none; stroke: black; stroke-width: 4;" transform="translate(-49.5 -37.5), rotate(4.5 650 950)"></rect><rect x="600" y="1000" width="100" height="100" style="fill: none; stroke: black; stroke-width: 4;" transform="translate(-52 -52), rotate(-8 650 1050)"></rect><rect x="600" y="1100" width="100" height="100" style="fill: none; stroke: black; stroke-width: 4;" transform="translate(-37.5 -49.5), rotate(-4.5 650 1150)"></rect><rect x="600" y="1200" width="100" height="100" style="fill: none; stroke: black; stroke-width: 4;" transform="translate(-54 -43), rotate(13 650 1250)"></rect><rect x="600" y="1300" width="100" height="100" style="fill: none; stroke: black; stroke-width: 4;" transform="translate(-67.5 -40.5), rotate(-13.5 650 1350)"></rect><rect x="600" y="1400" width="100" height="100" style="fill: none; stroke: black; stroke-width: 4;" transform="translate(-60 -37), rotate(-21 650 1450)"></rect><rect x="600" y="1500" width="100" height="100" style="fill: none; stroke: black; stroke-width: 4;" transform="translate(-51.5 -65.5), rotate(-8.5 650 1550)"></rect><rect x="600" y="1600" width="100" height="100" style="fill: none; stroke: black; stroke-width: 4;" transform="translate(-36 -56), rotate(0 650 1650)"></rect><rect x="600" y="1700" width="100" height="100" style="fill: none; stroke: black; stroke-width: 4;" transform="translate(-40.5 -73.5), rotate(13.5 650 1750)"></rect><rect x="600" y="1800" width="100" height="100" style="fill: none; stroke: black; stroke-width: 4;" transform="translate(-76 -26), rotate(-3 650 1850)"></rect><rect x="600" y="1900" width="100" height="100" style="fill: none; stroke: black; stroke-width: 4;" transform="translate(-49.5 -46.5), rotate(4.5 650 1950)"></rect><rect x="600" y="2000" width="100" height="100" style="fill: none; stroke: black; stroke-width: 4;" transform="translate(-22 -59), rotate(-9 650 2050)"></rect><rect x="600" y="2100" width="100" height="100" style="fill: none; stroke: black; stroke-width: 4;" transform="translate(-64.5 -51.5), rotate(19.5 650 2150)"></rect><rect x="700" y="100" width="100" height="100" style="fill: none; stroke: black; stroke-width: 4;" transform="translate(-51.5 -49.5), rotate(-1.5 750 150)"></rect><rect x="700" y="200" width="100" height="100" style="fill: none; stroke: black; stroke-width: 4;" transform="translate(-50 -51), rotate(2 750 250)"></rect><rect x="700" y="300" width="100" height="100" style="fill: none; stroke: black; stroke-width: 4;" transform="translate(-51.5 -48.5), rotate(-0.5 750 350)"></rect><rect x="700" y="400" width="100" height="100" style="fill: none; stroke: black; stroke-width: 4;" transform="translate(-54 -46), rotate(-6 750 450)"></rect><rect x="700" y="500" width="100" height="100" style="fill: none; stroke: black; stroke-width: 4;" transform="translate(-46.5 -50.5), rotate(-1.5 750 550)"></rect><rect x="700" y="600" width="100" height="100" style="fill: none; stroke: black; stroke-width: 4;" transform="translate(-55 -57), rotate(-5 750 650)"></rect><rect x="700" y="700" width="100" height="100" style="fill: none; stroke: black; stroke-width: 4;" transform="translate(-57.5 -46.5), rotate(4.5 750 750)"></rect><rect x="700" y="800" width="100" height="100" style="fill: none; stroke: black; stroke-width: 4;" transform="translate(-59 -53), rotate(3 750 850)"></rect><rect x="700" y="900" width="100" height="100" style="fill: none; stroke: black; stroke-width: 4;" transform="translate(-51.5 -48.5), rotate(-11.5 750 950)"></rect><rect x="700" y="1000" width="100" height="100" style="fill: none; stroke: black; stroke-width: 4;" transform="translate(-39 -48), rotate(-14 750 1050)"></rect><rect x="700" y="1100" width="100" height="100" style="fill: none; stroke: black; stroke-width: 4;" transform="translate(-46.5 -36.5), rotate(-12.5 750 1150)"></rect><rect x="700" y="1200" width="100" height="100" style="fill: none; stroke: black; stroke-width: 4;" transform="translate(-59 -39), rotate(-16 750 1250)"></rect><rect x="700" y="1300" width="100" height="100" style="fill: none; stroke: black; stroke-width: 4;" transform="translate(-45.5 -41.5), rotate(-12.5 750 1350)"></rect><rect x="700" y="1400" width="100" height="100" style="fill: none; stroke: black; stroke-width: 4;" transform="translate(-71 -32), rotate(2 750 1450)"></rect><rect x="700" y="1500" width="100" height="100" style="fill: none; stroke: black; stroke-width: 4;" transform="translate(-46.5 -65.5), rotate(-19.5 750 1550)"></rect><rect x="700" y="1600" width="100" height="100" style="fill: none; stroke: black; stroke-width: 4;" transform="translate(-63 -40), rotate(13 750 1650)"></rect><rect x="700" y="1700" width="100" height="100" style="fill: none; stroke: black; stroke-width: 4;" transform="translate(-73.5 -75.5), rotate(-4.5 750 1750)"></rect><rect x="700" y="1800" width="100" height="100" style="fill: none; stroke: black; stroke-width: 4;" transform="translate(-36 -52), rotate(16 750 1850)"></rect><rect x="700" y="1900" width="100" height="100" style="fill: none; stroke: black; stroke-width: 4;" transform="translate(-35.5 -59.5), rotate(-21.5 750 1950)"></rect><rect x="700" y="2000" width="100" height="100" style="fill: none; stroke: black; stroke-width: 4;" transform="translate(-24 -68), rotate(-20 750 2050)"></rect><rect x="700" y="2100" width="100" height="100" style="fill: none; stroke: black; stroke-width: 4;" transform="translate(-70.5 -79.5), rotate(28.5 750 2150)"></rect><rect x="800" y="100" width="100" height="100" style="fill: none; stroke: black; stroke-width: 4;" transform="translate(-50.5 -51.5), rotate(0.5 850 150)"></rect><rect x="800" y="200" width="100" height="100" style="fill: none; stroke: black; stroke-width: 4;" transform="translate(-51 -49), rotate(2 850 250)"></rect><rect x="800" y="300" width="100" height="100" style="fill: none; stroke: black; stroke-width: 4;" transform="translate(-53.5 -50.5), rotate(0.5 850 350)"></rect><rect x="800" y="400" width="100" height="100" style="fill: none; stroke: black; stroke-width: 4;" transform="translate(-53 -48), rotate(-3 850 450)"></rect><rect x="800" y="500" width="100" height="100" style="fill: none; stroke: black; stroke-width: 4;" transform="translate(-56.5 -43.5), rotate(4.5 850 550)"></rect><rect x="800" y="600" width="100" height="100" style="fill: none; stroke: black; stroke-width: 4;" transform="translate(-59 -46), rotate(3 850 650)"></rect><rect x="800" y="700" width="100" height="100" style="fill: none; stroke: black; stroke-width: 4;" transform="translate(-51.5 -47.5), rotate(5.5 850 750)"></rect><rect x="800" y="800" width="100" height="100" style="fill: none; stroke: black; stroke-width: 4;" transform="translate(-45 -41), rotate(-9 850 850)"></rect><rect x="800" y="900" width="100" height="100" style="fill: none; stroke: black; stroke-width: 4;" transform="translate(-59.5 -55.5), rotate(-13.5 850 950)"></rect><rect x="800" y="1000" width="100" height="100" style="fill: none; stroke: black; stroke-width: 4;" transform="translate(-47 -39), rotate(-8 850 1050)"></rect><rect x="800" y="1100" width="100" height="100" style="fill: none; stroke: black; stroke-width: 4;" transform="translate(-36.5 -60.5), rotate(-1.5 850 1150)"></rect><rect x="800" y="1200" width="100" height="100" style="fill: none; stroke: black; stroke-width: 4;" transform="translate(-65 -59), rotate(-10 850 1250)"></rect><rect x="800" y="1300" width="100" height="100" style="fill: none; stroke: black; stroke-width: 4;" transform="translate(-51.5 -32.5), rotate(-3.5 850 1350)"></rect><rect x="800" y="1400" width="100" height="100" style="fill: none; stroke: black; stroke-width: 4;" transform="translate(-57 -45), rotate(-1 850 1450)"></rect><rect x="800" y="1500" width="100" height="100" style="fill: none; stroke: black; stroke-width: 4;" transform="translate(-42.5 -60.5), rotate(-20.5 850 1550)"></rect><rect x="800" y="1600" width="100" height="100" style="fill: none; stroke: black; stroke-width: 4;" transform="translate(-67 -74), rotate(-4 850 1650)"></rect><rect x="800" y="1700" width="100" height="100" style="fill: none; stroke: black; stroke-width: 4;" transform="translate(-55.5 -27.5), rotate(10.5 850 1750)"></rect><rect x="800" y="1800" width="100" height="100" style="fill: none; stroke: black; stroke-width: 4;" transform="translate(-64 -51), rotate(-22 850 1850)"></rect><rect x="800" y="1900" width="100" height="100" style="fill: none; stroke: black; stroke-width: 4;" transform="translate(-45.5 -38.5), rotate(-5.5 850 1950)"></rect><rect x="800" y="2000" width="100" height="100" style="fill: none; stroke: black; stroke-width: 4;" transform="translate(-50 -68), rotate(12 850 2050)"></rect><rect x="800" y="2100" width="100" height="100" style="fill: none; stroke: black; stroke-width: 4;" transform="translate(-51.5 -28.5), rotate(-12.5 850 2150)"></rect><rect x="900" y="100" width="100" height="100" style="fill: none; stroke: black; stroke-width: 4;" transform="translate(-51.5 -49.5), rotate(-0.5 950 150)"></rect><rect x="900" y="200" width="100" height="100" style="fill: none; stroke: black; stroke-width: 4;" transform="translate(-48 -50), rotate(1 950 250)"></rect><rect x="900" y="300" width="100" height="100" style="fill: none; stroke: black; stroke-width: 4;" transform="translate(-51.5 -49.5), rotate(1.5 950 350)"></rect><rect x="900" y="400" width="100" height="100" style="fill: none; stroke: black; stroke-width: 4;" transform="translate(-47 -46), rotate(3 950 450)"></rect><rect x="900" y="500" width="100" height="100" style="fill: none; stroke: black; stroke-width: 4;" transform="translate(-46.5 -44.5), rotate(4.5 950 550)"></rect><rect x="900" y="600" width="100" height="100" style="fill: none; stroke: black; stroke-width: 4;" transform="translate(-42 -52), rotate(-1 950 650)"></rect><rect x="900" y="700" width="100" height="100" style="fill: none; stroke: black; stroke-width: 4;" transform="translate(-46.5 -50.5), rotate(6.5 950 750)"></rect><rect x="900" y="800" width="100" height="100" style="fill: none; stroke: black; stroke-width: 4;" transform="translate(-52 -43), rotate(-6 950 850)"></rect><rect x="900" y="900" width="100" height="100" style="fill: none; stroke: black; stroke-width: 4;" transform="translate(-51.5 -63.5), rotate(5.5 950 950)"></rect><rect x="900" y="1000" width="100" height="100" style="fill: none; stroke: black; stroke-width: 4;" transform="translate(-47 -62), rotate(10 950 1050)"></rect><rect x="900" y="1100" width="100" height="100" style="fill: none; stroke: black; stroke-width: 4;" transform="translate(-58.5 -36.5), rotate(7.5 950 1150)"></rect><rect x="900" y="1200" width="100" height="100" style="fill: none; stroke: black; stroke-width: 4;" transform="translate(-59 -40), rotate(-16 950 1250)"></rect><rect x="900" y="1300" width="100" height="100" style="fill: none; stroke: black; stroke-width: 4;" transform="translate(-64.5 -54.5), rotate(17.5 950 1350)"></rect><rect x="900" y="1400" width="100" height="100" style="fill: none; stroke: black; stroke-width: 4;" transform="translate(-46 -42), rotate(-8 950 1450)"></rect><rect x="900" y="1500" width="100" height="100" style="fill: none; stroke: black; stroke-width: 4;" transform="translate(-55.5 -58.5), rotate(13.5 950 1550)"></rect><rect x="900" y="1600" width="100" height="100" style="fill: none; stroke: black; stroke-width: 4;" transform="translate(-64 -46), rotate(-6 950 1650)"></rect><rect x="900" y="1700" width="100" height="100" style="fill: none; stroke: black; stroke-width: 4;" transform="translate(-26.5 -68.5), rotate(17.5 950 1750)"></rect><rect x="900" y="1800" width="100" height="100" style="fill: none; stroke: black; stroke-width: 4;" transform="translate(-27 -25), rotate(24 950 1850)"></rect><rect x="900" y="1900" width="100" height="100" style="fill: none; stroke: black; stroke-width: 4;" transform="translate(-74.5 -22.5), rotate(17.5 950 1950)"></rect><rect x="900" y="2000" width="100" height="100" style="fill: none; stroke: black; stroke-width: 4;" transform="translate(-31 -55), rotate(-2 950 2050)"></rect><rect x="900" y="2100" width="100" height="100" style="fill: none; stroke: black; stroke-width: 4;" transform="translate(-53.5 -44.5), rotate(26.5 950 2150)"></rect><rect x="1000" y="100" width="100" height="100" style="fill: none; stroke: black; stroke-width: 4;" transform="translate(-49.5 -50.5), rotate(-0.5 1050 150)"></rect><rect x="1000" y="200" width="100" height="100" style="fill: none; stroke: black; stroke-width: 4;" transform="translate(-51 -52), rotate(1 1050 250)"></rect><rect x="1000" y="300" width="100" height="100" style="fill: none; stroke: black; stroke-width: 4;" transform="translate(-51.5 -53.5), rotate(-0.5 1050 350)"></rect><rect x="1000" y="400" width="100" height="100" style="fill: none; stroke: black; stroke-width: 4;" transform="translate(-46 -56), rotate(0 1050 450)"></rect><rect x="1000" y="500" width="100" height="100" style="fill: none; stroke: black; stroke-width: 4;" transform="translate(-50.5 -51.5), rotate(2.5 1050 550)"></rect><rect x="1000" y="600" width="100" height="100" style="fill: none; stroke: black; stroke-width: 4;" transform="translate(-46 -49), rotate(-4 1050 650)"></rect><rect x="1000" y="700" width="100" height="100" style="fill: none; stroke: black; stroke-width: 4;" transform="translate(-50.5 -48.5), rotate(6.5 1050 750)"></rect><rect x="1000" y="800" width="100" height="100" style="fill: none; stroke: black; stroke-width: 4;" transform="translate(-45 -57), rotate(-10 1050 850)"></rect><rect x="1000" y="900" width="100" height="100" style="fill: none; stroke: black; stroke-width: 4;" transform="translate(-50.5 -56.5), rotate(-4.5 1050 950)"></rect><rect x="1000" y="1000" width="100" height="100" style="fill: none; stroke: black; stroke-width: 4;" transform="translate(-56 -49), rotate(4 1050 1050)"></rect><rect x="1000" y="1100" width="100" height="100" style="fill: none; stroke: black; stroke-width: 4;" transform="translate(-46.5 -37.5), rotate(0.5 1050 1150)"></rect><rect x="1000" y="1200" width="100" height="100" style="fill: none; stroke: black; stroke-width: 4;" transform="translate(-47 -56), rotate(-10 1050 1250)"></rect><rect x="1000" y="1300" width="100" height="100" style="fill: none; stroke: black; stroke-width: 4;" transform="translate(-51.5 -65.5), rotate(-19.5 1050 1350)"></rect><rect x="1000" y="1400" width="100" height="100" style="fill: none; stroke: black; stroke-width: 4;" transform="translate(-61 -60), rotate(12 1050 1450)"></rect><rect x="1000" y="1500" width="100" height="100" style="fill: none; stroke: black; stroke-width: 4;" transform="translate(-53.5 -64.5), rotate(2.5 1050 1550)"></rect><rect x="1000" y="1600" width="100" height="100" style="fill: none; stroke: black; stroke-width: 4;" transform="translate(-52 -65), rotate(-12 1050 1650)"></rect><rect x="1000" y="1700" width="100" height="100" style="fill: none; stroke: black; stroke-width: 4;" transform="translate(-50.5 -32.5), rotate(-6.5 1050 1750)"></rect><rect x="1000" y="1800" width="100" height="100" style="fill: none; stroke: black; stroke-width: 4;" transform="translate(-40 -35), rotate(-22 1050 1850)"></rect><rect x="1000" y="1900" width="100" height="100" style="fill: none; stroke: black; stroke-width: 4;" transform="translate(-53.5 -34.5), rotate(4.5 1050 1950)"></rect><rect x="1000" y="2000" width="100" height="100" style="fill: none; stroke: black; stroke-width: 4;" transform="translate(-24 -70), rotate(9 1050 2050)"></rect><rect x="1000" y="2100" width="100" height="100" style="fill: none; stroke: black; stroke-width: 4;" transform="translate(-62.5 -80.5), rotate(7.5 1050 2150)"></rect><rect x="1100" y="100" width="100" height="100" style="fill: none; stroke: black; stroke-width: 4;" transform="translate(-51.5 -49.5), rotate(0.5 1150 150)"></rect><rect x="1100" y="200" width="100" height="100" style="fill: none; stroke: black; stroke-width: 4;" transform="translate(-49 -52), rotate(-2 1150 250)"></rect><rect x="1100" y="300" width="100" height="100" style="fill: none; stroke: black; stroke-width: 4;" transform="translate(-50.5 -48.5), rotate(-2.5 1150 350)"></rect><rect x="1100" y="400" width="100" height="100" style="fill: none; stroke: black; stroke-width: 4;" transform="translate(-49 -45), rotate(-2 1150 450)"></rect><rect x="1100" y="500" width="100" height="100" style="fill: none; stroke: black; stroke-width: 4;" transform="translate(-54.5 -44.5), rotate(2.5 1150 550)"></rect><rect x="1100" y="600" width="100" height="100" style="fill: none; stroke: black; stroke-width: 4;" transform="translate(-53 -43), rotate(-4 1150 650)"></rect><rect x="1100" y="700" width="100" height="100" style="fill: none; stroke: black; stroke-width: 4;" transform="translate(-53.5 -45.5), rotate(4.5 1150 750)"></rect><rect x="1100" y="800" width="100" height="100" style="fill: none; stroke: black; stroke-width: 4;" transform="translate(-51 -59), rotate(6 1150 850)"></rect><rect x="1100" y="900" width="100" height="100" style="fill: none; stroke: black; stroke-width: 4;" transform="translate(-46.5 -56.5), rotate(-10.5 1150 950)"></rect><rect x="1100" y="1000" width="100" height="100" style="fill: none; stroke: black; stroke-width: 4;" transform="translate(-50 -43), rotate(-15 1150 1050)"></rect><rect x="1100" y="1100" width="100" height="100" style="fill: none; stroke: black; stroke-width: 4;" transform="translate(-56.5 -35.5), rotate(-4.5 1150 1150)"></rect><rect x="1100" y="1200" width="100" height="100" style="fill: none; stroke: black; stroke-width: 4;" transform="translate(-67 -47), rotate(5 1150 1250)"></rect><rect x="1100" y="1300" width="100" height="100" style="fill: none; stroke: black; stroke-width: 4;" transform="translate(-45.5 -45.5), rotate(-10.5 1150 1350)"></rect><rect x="1100" y="1400" width="100" height="100" style="fill: none; stroke: black; stroke-width: 4;" transform="translate(-32 -54), rotate(-12 1150 1450)"></rect><rect x="1100" y="1500" width="100" height="100" style="fill: none; stroke: black; stroke-width: 4;" transform="translate(-28.5 -66.5), rotate(0.5 1150 1550)"></rect><rect x="1100" y="1600" width="100" height="100" style="fill: none; stroke: black; stroke-width: 4;" transform="translate(-31 -32), rotate(-8 1150 1650)"></rect><rect x="1100" y="1700" width="100" height="100" style="fill: none; stroke: black; stroke-width: 4;" transform="translate(-35.5 -51.5), rotate(-5.5 1150 1750)"></rect><rect x="1100" y="1800" width="100" height="100" style="fill: none; stroke: black; stroke-width: 4;" transform="translate(-33 -57), rotate(-25 1150 1850)"></rect><rect x="1100" y="1900" width="100" height="100" style="fill: none; stroke: black; stroke-width: 4;" transform="translate(-45.5 -78.5), rotate(-25.5 1150 1950)"></rect><rect x="1100" y="2000" width="100" height="100" style="fill: none; stroke: black; stroke-width: 4;" transform="translate(-62 -55), rotate(10 1150 2050)"></rect><rect x="1100" y="2100" width="100" height="100" style="fill: none; stroke: black; stroke-width: 4;" transform="translate(-32.5 -50.5), rotate(26.5 1150 2150)"></rect><rect x="1200" y="100" width="100" height="100" style="fill: none; stroke: black; stroke-width: 4;" transform="translate(-51.5 -50.5), rotate(-0.5 1250 150)"></rect><rect x="1200" y="200" width="100" height="100" style="fill: none; stroke: black; stroke-width: 4;" transform="translate(-53 -49), rotate(0 1250 250)"></rect><rect x="1200" y="300" width="100" height="100" style="fill: none; stroke: black; stroke-width: 4;" transform="translate(-49.5 -54.5), rotate(-0.5 1250 350)"></rect><rect x="1200" y="400" width="100" height="100" style="fill: none; stroke: black; stroke-width: 4;" transform="translate(-48 -53), rotate(-4 1250 450)"></rect><rect x="1200" y="500" width="100" height="100" style="fill: none; stroke: black; stroke-width: 4;" transform="translate(-44.5 -43.5), rotate(5.5 1250 550)"></rect><rect x="1200" y="600" width="100" height="100" style="fill: none; stroke: black; stroke-width: 4;" transform="translate(-58 -46), rotate(-6 1250 650)"></rect><rect x="1200" y="700" width="100" height="100" style="fill: none; stroke: black; stroke-width: 4;" transform="translate(-52.5 -56.5), rotate(0.5 1250 750)"></rect><rect x="1200" y="800" width="100" height="100" style="fill: none; stroke: black; stroke-width: 4;" transform="translate(-57 -56), rotate(2 1250 850)"></rect><rect x="1200" y="900" width="100" height="100" style="fill: none; stroke: black; stroke-width: 4;" transform="translate(-54.5 -50.5), rotate(7.5 1250 950)"></rect><rect x="1200" y="1000" width="100" height="100" style="fill: none; stroke: black; stroke-width: 4;" transform="translate(-51 -45), rotate(11 1250 1050)"></rect><rect x="1200" y="1100" width="100" height="100" style="fill: none; stroke: black; stroke-width: 4;" transform="translate(-59.5 -40.5), rotate(-7.5 1250 1150)"></rect><rect x="1200" y="1200" width="100" height="100" style="fill: none; stroke: black; stroke-width: 4;" transform="translate(-55 -40), rotate(14 1250 1250)"></rect><rect x="1200" y="1300" width="100" height="100" style="fill: none; stroke: black; stroke-width: 4;" transform="translate(-46.5 -55.5), rotate(-11.5 1250 1350)"></rect><rect x="1200" y="1400" width="100" height="100" style="fill: none; stroke: black; stroke-width: 4;" transform="translate(-46 -65), rotate(-12 1250 1450)"></rect><rect x="1200" y="1500" width="100" height="100" style="fill: none; stroke: black; stroke-width: 4;" transform="translate(-59.5 -48.5), rotate(4.5 1250 1550)"></rect><rect x="1200" y="1600" width="100" height="100" style="fill: none; stroke: black; stroke-width: 4;" transform="translate(-60 -61), rotate(22 1250 1650)"></rect><rect x="1200" y="1700" width="100" height="100" style="fill: none; stroke: black; stroke-width: 4;" transform="translate(-40.5 -45.5), rotate(8.5 1250 1750)"></rect><rect x="1200" y="1800" width="100" height="100" style="fill: none; stroke: black; stroke-width: 4;" transform="translate(-73 -68), rotate(-3 1250 1850)"></rect><rect x="1200" y="1900" width="100" height="100" style="fill: none; stroke: black; stroke-width: 4;" transform="translate(-37.5 -63.5), rotate(-10.5 1250 1950)"></rect><rect x="1200" y="2000" width="100" height="100" style="fill: none; stroke: black; stroke-width: 4;" transform="translate(-66 -66), rotate(18 1250 2050)"></rect><rect x="1200" y="2100" width="100" height="100" style="fill: none; stroke: black; stroke-width: 4;" transform="translate(-49.5 -50.5), rotate(-21.5 1250 2150)"></rect>
</svg>