<svg xmlns="http://www.w3.org/2000/svg" viewBox="0 0 1000 1000" width="1000">
    <rect x="0" y="0" width="1000" height="1000" style="fill:#eeedeb" transform=""></rect>
    
    <rect x="80" y="100" width="250" height="250" style="fill:#6b2933" transform="rotate(-23, 80, 100)"></rect> <!--3-->
    <rect x="580" y="450" width="250" height="250" style="fill:#6b2933" transform="rotate(5, 580, 450)"></rect> <!--6-->
    <rect x="400" y="600" width="250" height="250" style="fill:#6b2933" transform="rotate(-35, 400, 600)"></rect> <!--7-->
    <rect x="290" y="40" width="250" height="250" style="fill:#be2a2a;opacity:.95" transform="rotate(-5, 290, 40)"></rect> <!--4-->
    <rect x="20" y="320" width="250" height="250" style="fill:#be2a2a" transform="rotate(5, 20, 320)"></rect> <!--1-->
    <rect x="550" y="840" width="250" height="250" style="fill:#be2a2a" transform="rotate(-50, 550, 840)"></rect> <!--8-->

    <path d="M -27 644 C 197 734 405 498 355 594 S 30 482 37 340 S 147 246 157 253 M 585 273 C 693 46 816 184 753 225 S 691 220 702 212 S 803 178 827 302 S 819 387 703 516 S 541 706 575 815 S 785 900 775 878 M 317 322 C 367 515 363 349 504 407 M 874 765 C 921 650 1020.6667 692.3333 1094 656 " style="stroke:black;fill:none;stroke-width:10;"></path> <!--long swirly-->

    <rect x="40" y="290" width="250" height="250" style="fill:#e84139" transform="rotate(-45, 40, 290)"></rect> <!--2-->
    <rect x="420" y="260" width="250" height="250" style="fill:#e84139" transform="rotate(-10, 420, 260)"></rect> <!--5-->
    <rect x="775" y="665" width="250" height="250" style="fill:#e52524" transform="rotate(25, 775, 665)"></rect> <!--9-->

    
</svg>